<?xml version="1.0" encoding="UTF-8"?>
<svg width="649px" height="463px" viewBox="0 0 649 463" version="1.1" xmlns="http://www.w3.org/2000/svg" xmlns:xlink="http://www.w3.org/1999/xlink">
    <!-- Generator: Sketch 48.2 (47327) - http://www.bohemiancoding.com/sketch -->
    <title>Group</title>
    <desc>Created with Sketch.</desc>
    <defs></defs>
    <g id="Page-1" stroke="none" stroke-width="1" fill="none" fill-rule="evenodd">
        <g id="behaviour_space5">
            <g id="Group">
                <path d="M242.2,430.2 C367.4,449.5 457,312.8 457,193 C457,73 344.4,0 215,0 C86,0 -23,95.4 4.3,203 C31.3,310.4 117.1,410.8 242.3,430.2 L242.2,430.2 Z" id="Shape" fill="#D3D3D3" fill-rule="nonzero"></path>
                <text id="All-Possible-Behaviour" fill="#000000" font-family="PTMono-Bold, PT Mono" font-size="30" font-weight="bold">
                    <tspan x="31" y="462">All Possible Behaviour</tspan>
                </text>
                <path d="M222.602007,295.313951 C286.407981,305.149856 332.071042,235.48311 332.071042,174.429152 C332.071042,113.273266 274.686437,76.070103 208.740008,76.070103 C142.99743,76.070103 87.447502,124.689031 101.360465,179.525476 C115.120539,234.259992 158.846998,285.427083 222.652971,295.313951 L222.602007,295.313951 Z" id="Shape" fill="#858585" fill-rule="nonzero" transform="translate(215.638896, 186.159361) rotate(114.000000) translate(-215.638896, -186.159361) "></path>
                <path d="M215.914358,255.710022 C255.371074,262.072472 283.608468,217.007866 283.608468,177.514524 C283.608468,137.955252 248.122635,113.890026 207.342293,113.890026 C166.688008,113.890026 132.336715,145.339649 140.940295,180.811132 C149.449332,216.216682 176.489157,249.314606 215.945873,255.710022 L215.914358,255.710022 Z" id="Shape" fill="#92B253" fill-rule="nonzero" transform="translate(211.608467, 185.102323) rotate(163.000000) translate(-211.608467, -185.102323) "></path>
                <text id="Expected-+-Asserted" fill="#000000" font-family="PTMono-Bold, PT Mono" font-size="30" font-weight="bold">
                    <tspan x="307" y="100">Expected + Asserted</tspan>
                </text>
            </g>
        </g>
    </g>
</svg>