<?xml version="1.0" encoding="UTF-8" standalone="no"?>
<svg width="397px" height="368px" viewBox="0 0 397 368" version="1.1" xmlns="http://www.w3.org/2000/svg" xmlns:xlink="http://www.w3.org/1999/xlink">
    <!-- Generator: Sketch 45.2 (43514) - http://www.bohemiancoding.com/sketch -->
    <title>Group</title>
    <desc>Created with Sketch.</desc>
    <defs></defs>
    <g id="Page-1" stroke="none" stroke-width="1" fill="none" fill-rule="evenodd">
        <g id="Group" fill-rule="nonzero" fill="#000000">
            <path d="M226.522225,64.0006 L226.522225,105.9896 C226.522225,108.0526 225.822225,109.7836 224.423225,111.1826 C223.023225,112.5826 221.366225,113.2816 219.451225,113.2816 L177.019225,113.2816 C175.104225,113.2816 173.446225,112.5816 172.047225,111.1826 C170.647225,109.7826 169.948225,108.0516 169.948225,105.9896 L169.948225,64.0006 C169.948225,61.9376 170.648225,60.2066 172.047225,58.8076 C173.447225,57.4076 175.104225,56.7086 177.019225,56.7086 L219.450225,56.7086 C221.365225,56.7086 223.023225,57.4086 224.422225,58.8076 C225.822225,60.2066 226.522225,61.9376 226.522225,64.0006 Z M226.080225,146.6526 L230.058225,248.0886 C230.058225,249.8566 229.321225,251.2566 227.848225,252.2876 C225.933225,253.9086 224.165225,254.7186 222.544225,254.7186 L173.925225,254.7186 C172.304225,254.7186 170.536225,253.9086 168.621225,252.2876 C167.148225,251.2566 166.411225,249.7096 166.411225,247.6466 L170.168225,146.6526 C170.168225,145.1796 170.905225,143.9636 172.378225,143.0066 C173.851225,142.0486 175.619225,141.5706 177.682225,141.5706 L218.566225,141.5706 C220.629225,141.5706 222.360225,142.0496 223.759225,143.0066 C225.158225,143.9636 225.933225,145.1786 226.080225,146.6526 Z M222.986225,353.0606 L392.710225,41.9006 C397.867225,32.6186 397.719225,23.3366 392.268225,14.0556 C389.763225,9.7826 386.338225,6.3946 381.992225,3.8896 C377.646225,1.3846 372.968225,0.1326 367.959225,0.1326 L28.5112254,0.1326 C23.5022254,0.1326 18.8242254,1.3846 14.4782254,3.8896 C10.1322254,6.3946 6.7062254,9.7826 4.2022254,14.0556 C-1.2487746,23.3376 -1.3967746,32.6196 3.7602254,41.9006 L173.484225,353.0606 C175.989225,357.6276 179.451225,361.2376 183.871225,363.8896 C188.291225,366.5416 193.079225,367.8676 198.236225,367.8676 C203.393225,367.8676 208.181225,366.5416 212.601225,363.8896 C217.019225,361.2376 220.482225,357.6286 222.986225,353.0606 Z" id="path6" transform="translate(198.235225, 184.000100) scale(-1, 1) rotate(-180.000000) translate(-198.235225, -184.000100) "></path>
        </g>
    </g>
</svg>