<?xml version="1.0" ?><!DOCTYPE svg  PUBLIC '-//W3C//DTD SVG 1.1//EN'  'http://www.w3.org/Graphics/SVG/1.1/DTD/svg11.dtd'><svg height="64px" id="_x33_5_x5F_pattern_x5F_system" style="enable-background:new 0 0 64 64;" version="1.1" viewBox="0 0 64 64" width="64px" xml:space="preserve" xmlns="http://www.w3.org/2000/svg" xmlns:xlink="http://www.w3.org/1999/xlink"><g><polyline points="4,1 19,1 19,19 1,19 1,4  " style="fill:none;stroke:#222829;stroke-width:2;stroke-miterlimit:10;"/><polyline points="4,45 19,45 19,63 1,63 1,48  " style="fill:none;stroke:#222829;stroke-width:2;stroke-miterlimit:10;"/><polyline points="48,45 63,45 63,63 45,63 45,48  " style="fill:none;stroke:#222829;stroke-width:2;stroke-miterlimit:10;"/><polyline points="38,19 23,19 23,1 41,1 41,16  " style="fill:none;stroke:#222829;stroke-width:2;stroke-miterlimit:10;"/><polyline points="23,38 23,23 41,23 41,41 26,41  " style="fill:none;stroke:#222829;stroke-width:2;stroke-miterlimit:10;"/><polyline points="60,41 45,41 45,23 63,23 63,38  " style="fill:none;stroke:#222829;stroke-width:2;stroke-miterlimit:10;"/><line style="fill:none;stroke:#222829;stroke-width:2;stroke-miterlimit:10;" x1="0" x2="2" y1="1" y2="1"/><line style="fill:none;stroke:#222829;stroke-width:2;stroke-miterlimit:10;" x1="42" x2="40" y1="19" y2="19"/><line style="fill:none;stroke:#222829;stroke-width:2;stroke-miterlimit:10;" x1="64" x2="62" y1="41" y2="41"/><line style="fill:none;stroke:#222829;stroke-width:2;stroke-miterlimit:10;" x1="46" x2="44" y1="45" y2="45"/><line style="fill:none;stroke:#222829;stroke-width:2;stroke-miterlimit:10;" x1="22" x2="24" y1="41" y2="41"/><line style="fill:none;stroke:#222829;stroke-width:2;stroke-miterlimit:10;" x1="0" x2="2" y1="45" y2="45"/><line style="fill:none;stroke:#222829;stroke-width:2;stroke-miterlimit:10;" x1="4" x2="16" y1="15" y2="15"/><line style="fill:none;stroke:#222829;stroke-width:2;stroke-miterlimit:10;" x1="48" x2="60" y1="59" y2="59"/><line style="fill:none;stroke:#222829;stroke-width:2;stroke-miterlimit:10;" x1="26" x2="38" y1="5" y2="5"/><line style="fill:none;stroke:#222829;stroke-width:2;stroke-miterlimit:10;" x1="48" x2="60" y1="27" y2="27"/><line style="fill:none;stroke:#222829;stroke-width:2;stroke-miterlimit:10;" x1="37" x2="37" y1="26" y2="38"/><line style="fill:none;stroke:#222829;stroke-width:2;stroke-miterlimit:10;" x1="15" x2="15" y1="48" y2="60"/><circle cx="10" cy="32" r="9" style="fill:none;stroke:#222829;stroke-width:2;stroke-miterlimit:10;"/><circle cx="54" cy="10" r="9" style="fill:none;stroke:#222829;stroke-width:2;stroke-miterlimit:10;"/><circle cx="32" cy="54" r="9" style="fill:none;stroke:#222829;stroke-width:2;stroke-miterlimit:10;"/></g></svg>