<?xml version="1.0" encoding="UTF-8" standalone="no"?>
<svg width="2412px" height="720px" viewBox="0 0 2412 720" version="1.1" xmlns="http://www.w3.org/2000/svg" xmlns:xlink="http://www.w3.org/1999/xlink">
    <!-- Generator: Sketch 45.2 (43514) - http://www.bohemiancoding.com/sketch -->
    <title>Group 2</title>
    <desc>Created with Sketch.</desc>
    <defs></defs>
    <g id="Page-1" stroke="none" stroke-width="1" fill="none" fill-rule="evenodd">
        <g id="Group-2" transform="translate(-1.000000, -216.000000)">
            <g id="robot" transform="translate(2001.000000, 216.000000)" fill-rule="nonzero" fill="#000000">
                <path d="M104,141.385281 C108.142,141.385281 111.5,138.041818 111.5,133.917749 L111.5,125.952381 C111.5,121.828312 108.142,118.484848 104,118.484848 C99.858,118.484848 96.5,121.828312 96.5,125.952381 L96.5,133.917749 C96.5,138.041818 99.857,141.385281 104,141.385281 Z" id="Shape"></path>
                <path d="M232,141.385281 C236.142,141.385281 239.5,138.041818 239.5,133.917749 L239.5,125.952381 C239.5,121.828312 236.142,118.484848 232,118.484848 C227.858,118.484848 224.5,121.828312 224.5,125.952381 L224.5,133.917749 C224.5,138.041818 227.857,141.385281 232,141.385281 Z" id="Shape"></path>
                <path d="M319.5,334.778442 L319.5,267.602511 C328.79,264.478095 335.5,255.724156 335.5,245.4329 C335.5,232.530996 324.958,222.034632 312,222.034632 L277.89,222.034632 C288.716,211.943506 295.5,197.604848 295.5,181.709957 L295.5,102.056277 C295.5,71.5857576 270.603,46.7965368 240,46.7965368 L215.5,46.7965368 L215.5,26.7696104 C219.688,24.234632 222.5,19.6625108 222.5,14.4372294 C222.5,6.47683983 215.995,-2.84217094e-14 208,-2.84217094e-14 C200.005,-2.84217094e-14 193.5,6.47683983 193.5,14.4372294 C193.5,19.6625108 196.312,24.234632 200.5,26.7696104 L200.5,46.7965368 L135.5,46.7965368 L135.5,26.7696104 C139.688,24.234632 142.5,19.6625108 142.5,14.4372294 C142.5,6.47683983 135.995,-2.84217094e-14 128,-2.84217094e-14 C120.005,-2.84217094e-14 113.5,6.47683983 113.5,14.4372294 C113.5,19.6625108 116.312,24.234632 120.5,26.7696104 L120.5,46.7965368 L96,46.7965368 C65.397,46.7965368 40.5,71.5857576 40.5,102.056277 L40.5,181.709957 C40.5,197.604848 47.284,211.943506 58.11,222.034632 L24,222.034632 C11.042,222.034632 0.5,232.530996 0.5,245.4329 C0.5,255.724156 7.21,264.478095 16.5,267.602511 L16.5,334.778442 C7.21,337.902857 0.5,346.656797 0.5,356.948052 L0.5,372.878788 C0.5,377.002857 3.858,380.34632 8,380.34632 C12.142,380.34632 15.5,377.002857 15.5,372.878788 L15.5,356.948052 C15.5,352.281342 19.313,348.484848 24,348.484848 C28.687,348.484848 32.5,352.281342 32.5,356.948052 L32.5,372.878788 C32.5,377.002857 35.858,380.34632 40,380.34632 C44.142,380.34632 47.5,377.002857 47.5,372.878788 L47.5,356.948052 C47.5,346.656797 40.79,337.902857 31.5,334.778442 L31.5,268.831169 L64.5,268.831169 L64.5,341.017316 C64.5,353.919221 75.042,364.415584 88,364.415584 L97.409,364.415584 C98.654,369.468615 101.129,374.042727 104.502,377.806364 C104.502,377.82329 104.499,377.840216 104.499,377.857143 L104.499,413.203463 L96,413.203463 C74.22,413.203463 56.5,430.846753 56.5,452.532468 C56.5,456.656537 59.858,460 64,460 L152,460 C156.142,460 159.5,456.656537 159.5,452.532468 L159.5,420.670996 C159.5,416.546926 156.142,413.203463 152,413.203463 L151.5,413.203463 L151.5,377.857143 C151.5,377.840216 151.498,377.82329 151.497,377.806364 C154.871,374.042727 157.346,369.467619 158.59,364.415584 L177.409,364.415584 C178.654,369.468615 181.129,374.042727 184.502,377.806364 C184.502,377.82329 184.499,377.840216 184.499,377.857143 L184.499,413.203463 L184,413.203463 C179.858,413.203463 176.5,416.546926 176.5,420.670996 L176.5,452.532468 C176.5,456.656537 179.858,460 184,460 L272,460 C276.142,460 279.5,456.656537 279.5,452.532468 C279.5,430.846753 261.78,413.203463 240,413.203463 L231.5,413.203463 L231.5,377.857143 C231.5,377.840216 231.498,377.82329 231.497,377.806364 C234.871,374.042727 237.346,369.467619 238.59,364.415584 L248,364.415584 C260.958,364.415584 271.5,353.919221 271.5,341.017316 L271.5,268.831169 L304.5,268.831169 L304.5,334.778442 C295.21,337.902857 288.5,346.656797 288.5,356.948052 L288.5,372.878788 C288.5,377.002857 291.858,380.34632 296,380.34632 C300.142,380.34632 303.5,377.002857 303.5,372.878788 L303.5,356.948052 C303.5,352.281342 307.313,348.484848 312,348.484848 C316.687,348.484848 320.5,352.281342 320.5,356.948052 L320.5,372.878788 C320.5,377.002857 323.858,380.34632 328,380.34632 C332.142,380.34632 335.5,377.002857 335.5,372.878788 L335.5,356.948052 C335.5,346.656797 328.79,337.902857 319.5,334.778442 L319.5,334.778442 Z M312,253.896104 C307.313,253.896104 303.5,250.09961 303.5,245.4329 C303.5,240.76619 307.313,236.969697 312,236.969697 C316.687,236.969697 320.5,240.76619 320.5,245.4329 C320.5,250.09961 316.687,253.896104 312,253.896104 Z M55.5,102.056277 C55.5,79.8209524 73.668,61.7316017 96,61.7316017 L240,61.7316017 C262.332,61.7316017 280.5,79.8209524 280.5,102.056277 L280.5,149.848485 C280.5,158.051818 264.329,166.329827 250.481,170.925844 C228.56,178.201212 199.268,182.207792 168,182.207792 C136.732,182.207792 107.439,178.201212 85.519,170.925844 C71.671,166.329827 55.5,158.051818 55.5,149.848485 L55.5,102.056277 Z M55.5,181.709957 L55.5,173.228831 C61.471,177.353896 69.648,181.401299 80.775,185.095238 C104.185,192.864459 135.162,197.142857 168,197.142857 C200.838,197.142857 231.815,192.864459 255.225,185.094242 C266.353,181.401299 274.529,177.3529 280.5,173.227835 L280.5,181.708961 C280.5,203.944286 262.332,222.033636 240,222.033636 L96,222.033636 C73.668,222.034632 55.5,203.945281 55.5,181.709957 Z M24,236.969697 C28.687,236.969697 32.5,240.76619 32.5,245.4329 C32.5,250.09961 28.687,253.896104 24,253.896104 C19.313,253.896104 15.5,250.09961 15.5,245.4329 C15.5,240.76619 19.313,236.969697 24,236.969697 Z M45.903,253.896104 C46.93,251.269524 47.5,248.416926 47.5,245.4329 C47.5,242.448874 46.93,239.596277 45.903,236.969697 L64.5,236.969697 L64.5,253.896104 L45.903,253.896104 Z M144.5,445.064935 L72.674,445.064935 C75.849,435.254589 85.106,428.138528 96,428.138528 L144.5,428.138528 L144.5,445.064935 Z M119.5,413.203463 L119.5,387.141775 C122.206,387.898485 125.055,388.311688 128,388.311688 C130.945,388.311688 133.794,387.898485 136.5,387.141775 L136.5,413.203463 L119.5,413.203463 Z M128,373.376623 C121.604,373.376623 116.058,369.726494 113.321,364.415584 L142.678,364.415584 C139.941,369.726494 134.396,373.376623 128,373.376623 Z M263.326,445.064935 L191.5,445.064935 L191.5,428.138528 L240,428.138528 C250.894,428.138528 260.151,435.254589 263.326,445.064935 Z M199.5,413.203463 L199.5,387.141775 C202.206,387.898485 205.055,388.311688 208,388.311688 C210.945,388.311688 213.794,387.898485 216.5,387.141775 L216.5,413.203463 L199.5,413.203463 Z M208,373.376623 C201.604,373.376623 196.058,369.726494 193.321,364.415584 L222.678,364.415584 C219.941,369.726494 214.396,373.376623 208,373.376623 Z M256.5,341.017316 C256.5,345.684026 252.687,349.480519 248,349.480519 L88,349.480519 C83.313,349.480519 79.5,345.684026 79.5,341.017316 L79.5,234.476537 C84.715,236.096494 90.257,236.969697 96,236.969697 L240,236.969697 C245.743,236.969697 251.286,236.096494 256.5,234.476537 L256.5,341.017316 Z M271.5,236.969697 L290.097,236.969697 C289.07,239.596277 288.5,242.448874 288.5,245.4329 C288.5,248.416926 289.07,251.269524 290.097,253.896104 L271.5,253.896104 L271.5,236.969697 Z" id="Shape"></path>
                <path d="M168,261.861472 C150.631,261.861472 136.5,275.931299 136.5,293.225108 C136.5,310.518918 150.63,324.588745 168,324.588745 C185.37,324.588745 199.5,310.518918 199.5,293.225108 C199.5,275.931299 185.369,261.861472 168,261.861472 Z M168,309.65368 C158.902,309.65368 151.5,302.283723 151.5,293.225108 C151.5,284.166494 158.901,276.796537 168,276.796537 C177.099,276.796537 184.5,284.166494 184.5,293.225108 C184.5,302.283723 177.098,309.65368 168,309.65368 Z" id="Shape"></path>
                <path d="M112,269.82684 C107.858,269.82684 104.5,273.170303 104.5,277.294372 L104.5,309.155844 C104.5,313.279913 107.858,316.623377 112,316.623377 C116.142,316.623377 119.5,313.279913 119.5,309.155844 L119.5,277.294372 C119.5,273.170303 116.142,269.82684 112,269.82684 Z" id="Shape"></path>
                <path d="M224,269.82684 C219.858,269.82684 216.5,273.170303 216.5,277.294372 L216.5,309.155844 C216.5,313.279913 219.858,316.623377 224,316.623377 C228.142,316.623377 231.5,313.279913 231.5,309.155844 L231.5,277.294372 C231.5,273.170303 228.142,269.82684 224,269.82684 Z" id="Shape"></path>
            </g>
            <g id="globe-europe-simple-bw" transform="translate(85.000000, 216.000000)">
                <path d="M462.507925,229.755556 C462.507925,356.646376 358.972331,459.511113 231.253962,459.511113 C103.535594,459.511113 0,356.646376 0,229.755556 C0,102.864737 103.535594,0 231.253962,0 C358.972331,0 462.507925,102.864737 462.507925,229.755556 Z" id="Fill-1" fill="#000000"></path>
                <path d="M6.08563059,229.755556 C6.08563059,271.473573 17.647568,310.16849 37.732431,343.422583 L40.7752463,289.006794 C15.2140765,253.334976 9.12844588,238.219479 8.51912212,195.896087 C6.69495435,206.781512 6.08563059,218.268534 6.08563059,229.755556 Z M59.0321381,85.8575353 L89.460291,75.5774857 C109.541351,49.5803422 149.707273,18.7439722 190.478716,18.7439722 C174.659119,23.5794198 129.01689,45.3464914 125.364751,59.2512372 C142.402995,48.3695908 156.402227,46.5572427 173.440472,46.5572427 L210.563579,25.9971435 L198.392318,8.46392262 C142.402995,16.3262485 93.7179503,44.7411157 59.0321381,85.8575353 Z M88.8509673,230.360932 C88.8509673,243.660302 102.237072,271.473573 118.060473,271.473573 L157.007748,271.473573 L161.878534,279.335899 C174.049795,279.335899 174.049795,287.799821 174.049795,298.681468 C174.049795,313.191589 192.306687,315.613092 192.306687,338.587136 C192.306687,344.633335 185.002409,347.051058 185.002409,356.725732 C185.002409,365.189655 207.520764,408.723798 221.516193,408.723798 C245.858715,408.723798 272.634729,386.956727 272.634729,377.282053 C272.634729,354.308009 293.328916,360.354208 293.328916,344.633335 C293.328916,273.2897 322.538421,307.14539 333.491035,245.476429 L308.542992,255.151103 C281.763175,232.778656 265.943578,200.129938 265.943578,188.03754 C273.853376,188.03754 298.195899,224.314733 306.715021,246.081805 C327.405404,237.614103 348.705111,222.498606 354.185222,200.735314 L343.228804,195.896087 L339.576665,188.642916 L331.057543,199.524562 C328.014728,199.524562 314.019299,189.244513 309.757836,174.734391 C329.233375,187.432164 338.361821,187.432164 372.442113,187.432164 C388.26171,187.432164 397.390156,232.778656 412.604232,240.637203 C412.604232,215.850811 414.432204,195.896087 423.56065,175.945142 C432.079772,175.945142 446.075201,189.849888 455.81297,217.057783 C450.336663,117.900878 379.742588,35.6718175 285.415314,12.6977734 L299.414546,24.1847954 L284.20047,24.1847954 C284.20047,56.2281378 274.4627,45.3464914 252.553669,69.5312868 C252.553669,63.485088 252.553669,61.0673642 257.420652,58.0442648 C248.292207,52.6034416 239.773084,50.7873146 233.687454,50.7873146 C224.559008,50.7873146 199.607162,66.5081874 192.306687,82.2290602 L205.087272,81.0183089 L209.954255,91.9037341 C220.906869,85.2521596 217.258533,63.485088 233.687454,63.485088 C233.687454,68.3205355 226.992499,70.1366625 226.992499,78.6005851 L242.206576,77.9952094 C228.211147,93.7160822 220.906869,97.3445573 202.044457,97.3445573 L199.001642,87.6698834 C193.521531,101.574629 177.092611,108.831579 163.702702,110.042331 C163.702702,117.295502 163.093378,121.529353 158.835719,128.180927 L143.012319,125.157828 L132.665225,148.131872 L152.750088,152.365723 C161.878534,137.851822 172.831148,129.993275 188.045224,126.970176 L207.520764,148.131872 C207.520764,150.549596 203.868625,152.365723 195.349503,152.365723 L202.649977,157.20117 L213.606394,143.898021 C203.868625,138.457198 200.216486,132.410999 200.216486,125.157828 C223.344164,131.805623 217.864054,155.388822 228.211147,157.20117 C228.211147,129.993275 247.077363,154.783446 247.077363,122.134728 C260.463468,122.134728 283.591146,129.993275 283.591146,139.667949 C248.90153,139.667949 239.163761,140.874922 239.163761,151.760347 C239.163761,157.20117 268.986393,148.737248 268.986393,177.152115 C244.643871,177.152115 233.687454,177.152115 220.301349,169.898944 L216.039886,181.991341 C201.435133,177.757491 186.221057,169.898944 186.221057,152.967319 L150.922117,158.411922 L141.188151,152.365723 C116.845629,182.596717 88.8509673,178.968242 88.8509673,230.360932 Z M153.359412,99.1569054 L162.487858,97.3445573 L166.745517,88.8806347 C158.226395,88.8806347 153.964932,94.3214579 153.359412,99.1569054 Z M158.835719,105.80848 L178.307455,102.785381 L175.264639,79.2059608 C163.702702,85.2521596 177.092611,94.3214579 158.835719,105.80848 Z M160.050563,62.2743367 C167.964165,62.2743367 174.659119,61.0673642 174.659119,55.626541 L163.093378,53.2050384 L160.050563,62.2743367 Z M292.719592,121.529353 C309.148512,121.529353 320.714253,141.480297 320.714253,149.94422 L306.105697,148.737248 C306.105697,139.062574 300.62939,128.782524 292.719592,121.529353 Z M298.805222,382.121279 C313.409975,382.121279 328.014728,359.748832 328.014728,335.564036 L304.890853,354.913384 L298.805222,382.121279 Z" id="Fill-2" fill="#FFFFFF"></path>
            </g>
            <g id="brain" transform="translate(1067.000000, 216.000000)" fill-rule="nonzero" fill="#000000">
                <path d="M127.245,221.004665 C124.054,235.50311 111.036,246.393089 95.5,246.393089 C91.358,246.393089 88,249.728337 88,253.844492 C88,257.960648 91.358,261.295896 95.5,261.295896 C119.274,261.295896 139.022,243.852657 142.466,221.171577 C157.022,219.607775 170.459,213.163801 180.861,202.615594 C183.76,199.675767 183.711,194.957538 180.752,192.078315 C177.794,189.200086 173.045,189.245788 170.146,192.185616 C160.947,201.514773 148.643,206.652268 135.5,206.652268 C108.757,206.652268 87,185.036242 87,158.466523 C87,154.350367 83.642,151.015119 79.5,151.015119 C75.358,151.015119 72,154.350367 72,158.466523 C72,190.472786 96.119,216.968985 127.245,221.004665 Z" id="Shape"></path>
                <path d="M159,285.637149 C159,281.520994 155.642,278.185745 151.5,278.185745 C116.486,278.185745 88,306.487171 88,341.274298 C88,341.633952 88.013,341.9946 88.019,342.355248 C85.23,341.981685 82.39,341.771058 79.5,341.771058 C75.358,341.771058 72,345.106307 72,349.222462 C72,353.338618 75.358,356.673866 79.5,356.673866 C106.243,356.673866 128,378.289892 128,404.859611 C128,408.975767 131.358,412.311015 135.5,412.311015 C139.642,412.311015 143,408.975767 143,404.859611 C143,378.421037 126.538,355.742937 103.269,346.374039 C103.091,344.686048 103,342.978186 103,341.274298 C103,314.704579 124.757,293.088553 151.5,293.088553 C155.642,293.088553 159,289.753305 159,285.637149 Z" id="Shape"></path>
                <path d="M415,222.051836 C415,205.087473 408.18,189.011317 396.125,177.188423 C398.034,171.12 399,164.842937 399,158.466523 C399,127.79257 376.848,102.174644 347.606,96.5413823 C349.841,91.0064795 351,85.0731749 351,78.9848812 C351,59.5546004 339.117,42.8336501 322.194,35.6067819 C293.999,13.2962851 263.162,0 239.5,0 C226.347,0 214.683,6.42609071 207.5,16.2778402 C200.317,6.42609071 188.653,0 175.5,0 C151.838,0 121.001,13.2962851 92.806,35.6067819 C75.883,42.8336501 64,59.5546004 64,78.9848812 C64,85.0731749 65.159,91.0064795 67.394,96.5413823 C38.152,102.174644 16,127.79257 16,158.466523 C16,164.842937 16.965,171.119006 18.875,177.188423 C6.82,189.011317 0,205.087473 0,222.051836 C0,235.313348 4.149,247.626048 11.213,257.793737 C3.872,268.336976 0,280.635767 0,293.585313 C0,316.523715 12.587,337.540648 32.516,348.622376 C32.173,351.455896 32,354.315248 32,357.170626 C32,388.112829 52.315,415.469417 81.79,424.792613 C94.611,446.592441 117.965,460 143.5,460 C171.495,460 195.769,443.923844 207.5,420.583067 C219.231,443.923844 243.505,460 271.5,460 C297.035,460 320.389,446.592441 333.21,424.792613 C362.685,415.468423 383,388.111836 383,357.170626 C383,354.315248 382.827,351.455896 382.484,348.622376 C402.413,337.540648 415,316.523715 415,293.585313 C415,280.635767 411.128,268.336976 403.787,257.793737 C410.851,247.626048 415,235.313348 415,222.051836 Z M143.5,445.097192 C122.471,445.097192 103.309,433.578315 93.491,415.037235 C92.518,413.200216 90.82,411.850022 88.803,411.31054 C64.19,404.72946 47,382.466652 47,357.170626 C47,353.385313 47.384,349.594039 48.141,345.90013 C48.843,342.475464 47.054,339.024968 43.839,337.604233 C26.32,329.866695 15,312.587387 15,293.585313 C15,284.942678 17.256,276.681555 21.561,269.364276 C32.757,279.171317 47.436,285.140389 63.5,285.140389 C67.642,285.140389 71,281.80514 71,277.688985 C71,273.572829 67.642,270.237581 63.5,270.237581 C36.757,270.237581 15,248.621555 15,222.051836 C15,207.749114 21.352,194.269028 32.428,185.072009 C34.928,182.995551 35.793,179.553002 34.568,176.553564 C32.2,170.755378 31,164.670065 31,158.466523 C31,131.896803 52.757,110.280778 79.5,110.280778 C106.243,110.280778 128,131.896803 128,158.466523 C128,162.582678 131.358,165.917927 135.5,165.917927 C139.642,165.917927 143,162.582678 143,158.466523 C143,125.042505 116.698,97.6203456 83.579,95.5220302 C80.577,90.5365443 79,84.8675162 79,78.9848812 C79,65.7025054 87.116,54.2710583 98.678,49.3193521 C99.125,49.1872138 99.563,49.0143413 99.986,48.7957667 C103.568,47.4425918 107.447,46.6954644 111.5,46.6954644 C124.057,46.6954644 135.267,53.6709719 140.756,64.9017279 C142.566,68.6045788 147.054,70.1485097 150.779,68.3492441 C154.505,66.5519654 156.059,62.0940389 154.249,58.3921814 C147.983,45.5727862 136.124,36.3588769 122.467,33.095162 C141.609,21.4908423 160.454,14.9028078 175.5,14.9028078 C189.009,14.9028078 200,25.8215983 200,39.2440605 L200,135.66622 C193.261,130.35486 184.75,127.170626 175.5,127.170626 C171.358,127.170626 168,130.505875 168,134.62203 C168,138.738186 171.358,142.073434 175.5,142.073434 C189.009,142.073434 200,152.992225 200,166.414687 L200,345.525572 C190.675,333.572527 177.529,324.551361 162.065,320.423283 C158.066,319.359222 153.951,321.711879 152.876,325.685961 C151.801,329.661037 154.173,333.74838 158.173,334.815421 C182.8,341.389546 200,363.655335 200,388.963283 C200,419.915421 174.654,445.097192 143.5,445.097192 Z M371.161,337.605227 C367.946,339.025961 366.157,342.475464 366.859,345.901123 C367.616,349.595032 368,353.386307 368,357.17162 C368,382.467646 350.81,404.730454 326.197,411.311533 C324.18,411.851015 322.481,413.20121 321.509,415.038229 C311.691,433.578315 292.529,445.097192 271.5,445.097192 C240.346,445.097192 215,419.915421 215,388.963283 C215,386.867948 214.902,384.790497 214.719,382.732916 C214.897,382.096069 215,381.42743 215,380.733952 L215,134.62203 C215,121.199568 225.991,110.280778 239.5,110.280778 C243.642,110.280778 247,106.945529 247,102.829374 C247,98.7132181 243.642,95.3779698 239.5,95.3779698 C230.25,95.3779698 221.739,98.562203 215,103.873564 L215,39.2440605 C215,25.8215983 225.991,14.9028078 239.5,14.9028078 C254.546,14.9028078 273.391,21.4908423 292.533,33.095162 C278.876,36.3578834 267.017,45.5727862 260.751,58.3921814 C258.941,62.0950324 260.495,66.552959 264.221,68.3492441 C267.947,70.1475162 272.434,68.6045788 274.244,64.9017279 C279.733,53.6709719 290.943,46.6954644 303.5,46.6954644 C307.553,46.6954644 311.433,47.4425918 315.014,48.7957667 C315.436,49.0143413 315.874,49.1862203 316.319,49.3183585 C327.883,54.2700648 336,65.7015119 336,78.9848812 C336,84.8675162 334.423,90.5365443 331.421,95.5220302 C298.302,97.6203456 272,125.042505 272,158.466523 C272,162.582678 275.358,165.917927 279.5,165.917927 C283.642,165.917927 287,162.582678 287,158.466523 C287,131.896803 308.757,110.280778 335.5,110.280778 C362.243,110.280778 384,131.896803 384,158.466523 C384,164.670065 382.8,170.755378 380.433,176.553564 C379.208,179.553996 380.073,182.995551 382.573,185.072009 C393.648,194.269028 400,207.749114 400,222.051836 C400,248.621555 378.243,270.237581 351.5,270.237581 C347.358,270.237581 344,273.572829 344,277.688985 C344,281.80514 347.358,285.140389 351.5,285.140389 C367.564,285.140389 382.243,279.171317 393.439,269.364276 C397.745,276.681555 400,284.942678 400,293.585313 C400,312.587387 388.68,329.866695 371.161,337.605227 Z" id="Shape"></path>
                <path d="M335.5,238.444924 C319.964,238.444924 306.946,227.554946 303.755,213.056501 C334.881,209.020821 359,182.524622 359,150.518359 C359,146.402203 355.642,143.066955 351.5,143.066955 C347.358,143.066955 344,146.402203 344,150.518359 C344,177.088078 322.243,198.704104 295.5,198.704104 C282.357,198.704104 270.053,193.566609 260.854,184.237451 C257.956,181.298618 253.207,181.249935 250.248,184.130151 C247.289,187.010367 247.24,191.727603 250.139,194.66743 C260.541,205.215637 273.978,211.659611 288.534,213.223413 C291.978,235.904492 311.726,253.347732 335.5,253.347732 C339.642,253.347732 343,250.012484 343,245.896328 C343,241.780173 339.642,238.444924 335.5,238.444924 Z" id="Shape"></path>
                <path d="M311.5,325.87473 C308.61,325.87473 305.77,326.085356 302.981,326.45892 C302.987,326.098272 303,325.737624 303,325.37797 C303,290.590842 274.514,262.289417 239.5,262.289417 C235.358,262.289417 232,265.624665 232,269.740821 C232,273.856976 235.358,277.192225 239.5,277.192225 C266.243,277.192225 288,298.808251 288,325.37797 C288,327.080864 287.909,328.789719 287.731,330.477711 C264.462,339.846609 248,362.524708 248,388.963283 C248,393.079438 251.358,396.414687 255.5,396.414687 C259.642,396.414687 263,393.079438 263,388.963283 C263,362.393564 284.757,340.777538 311.5,340.777538 C315.642,340.777538 319,337.442289 319,333.326134 C319,329.209978 315.642,325.87473 311.5,325.87473 Z" id="Shape"></path>
            </g>
            <g id="Group" transform="translate(570.000000, 389.000000)" stroke="#000000">
                <path d="M0.5,58 L465.973952,58" id="Line" stroke-width="20" stroke-linecap="square"></path>
                <polygon id="Path-2" fill="#000000" points="488.0625 58.9648438 429.592605 0.49494861 429.592605 113.081202"></polygon>
            </g>
            <path d="M1505.5,447 L1970.97395,447" id="Line" stroke="#000000" stroke-width="20" stroke-linecap="square"></path>
            <polygon id="Path-2" stroke="#000000" fill="#000000" points="1993.0625 447.964844 1934.5926 389.494949 1934.5926 502.081202"></polygon>
            <text id="Actuator" font-family="Helvetica-Bold, Helvetica" font-size="120" font-weight="bold" fill="#000000">
                <tspan x="1922.32031" y="933">Actuator</tspan>
            </text>
            <text id="Robot" font-family="Helvetica-Bold, Helvetica" font-size="120" font-weight="bold" fill="#000000">
                <tspan x="1101.23828" y="933">Robot</tspan>
            </text>
            <text id="WorldState" font-family="Helvetica-Bold, Helvetica" font-size="120" font-weight="bold" fill="#000000">
                <tspan x="0.884765625" y="933">WorldState</tspan>
            </text>
            <rect id="Rectangle" stroke="#FF0000" stroke-width="40" opacity="0" x="856" y="20" width="840.265625" height="1027"></rect>
        </g>
    </g>
</svg>