<?xml version="1.0" encoding="UTF-8" standalone="no"?>
<svg width="415px" height="460px" viewBox="0 0 415 460" version="1.1" xmlns="http://www.w3.org/2000/svg" xmlns:xlink="http://www.w3.org/1999/xlink">
    <!-- Generator: Sketch 45.2 (43514) - http://www.bohemiancoding.com/sketch -->
    <title>brain</title>
    <desc>Created with Sketch.</desc>
    <defs></defs>
    <g id="Page-1" stroke="none" stroke-width="1" fill="none" fill-rule="evenodd">
        <g id="brain" fill-rule="nonzero" fill="#000000">
            <path d="M127.245,221.004665 C124.054,235.50311 111.036,246.393089 95.5,246.393089 C91.358,246.393089 88,249.728337 88,253.844492 C88,257.960648 91.358,261.295896 95.5,261.295896 C119.274,261.295896 139.022,243.852657 142.466,221.171577 C157.022,219.607775 170.459,213.163801 180.861,202.615594 C183.76,199.675767 183.711,194.957538 180.752,192.078315 C177.794,189.200086 173.045,189.245788 170.146,192.185616 C160.947,201.514773 148.643,206.652268 135.5,206.652268 C108.757,206.652268 87,185.036242 87,158.466523 C87,154.350367 83.642,151.015119 79.5,151.015119 C75.358,151.015119 72,154.350367 72,158.466523 C72,190.472786 96.119,216.968985 127.245,221.004665 Z" id="Shape"></path>
            <path d="M159,285.637149 C159,281.520994 155.642,278.185745 151.5,278.185745 C116.486,278.185745 88,306.487171 88,341.274298 C88,341.633952 88.013,341.9946 88.019,342.355248 C85.23,341.981685 82.39,341.771058 79.5,341.771058 C75.358,341.771058 72,345.106307 72,349.222462 C72,353.338618 75.358,356.673866 79.5,356.673866 C106.243,356.673866 128,378.289892 128,404.859611 C128,408.975767 131.358,412.311015 135.5,412.311015 C139.642,412.311015 143,408.975767 143,404.859611 C143,378.421037 126.538,355.742937 103.269,346.374039 C103.091,344.686048 103,342.978186 103,341.274298 C103,314.704579 124.757,293.088553 151.5,293.088553 C155.642,293.088553 159,289.753305 159,285.637149 Z" id="Shape"></path>
            <path d="M415,222.051836 C415,205.087473 408.18,189.011317 396.125,177.188423 C398.034,171.12 399,164.842937 399,158.466523 C399,127.79257 376.848,102.174644 347.606,96.5413823 C349.841,91.0064795 351,85.0731749 351,78.9848812 C351,59.5546004 339.117,42.8336501 322.194,35.6067819 C293.999,13.2962851 263.162,0 239.5,0 C226.347,0 214.683,6.42609071 207.5,16.2778402 C200.317,6.42609071 188.653,0 175.5,0 C151.838,0 121.001,13.2962851 92.806,35.6067819 C75.883,42.8336501 64,59.5546004 64,78.9848812 C64,85.0731749 65.159,91.0064795 67.394,96.5413823 C38.152,102.174644 16,127.79257 16,158.466523 C16,164.842937 16.965,171.119006 18.875,177.188423 C6.82,189.011317 0,205.087473 0,222.051836 C0,235.313348 4.149,247.626048 11.213,257.793737 C3.872,268.336976 0,280.635767 0,293.585313 C0,316.523715 12.587,337.540648 32.516,348.622376 C32.173,351.455896 32,354.315248 32,357.170626 C32,388.112829 52.315,415.469417 81.79,424.792613 C94.611,446.592441 117.965,460 143.5,460 C171.495,460 195.769,443.923844 207.5,420.583067 C219.231,443.923844 243.505,460 271.5,460 C297.035,460 320.389,446.592441 333.21,424.792613 C362.685,415.468423 383,388.111836 383,357.170626 C383,354.315248 382.827,351.455896 382.484,348.622376 C402.413,337.540648 415,316.523715 415,293.585313 C415,280.635767 411.128,268.336976 403.787,257.793737 C410.851,247.626048 415,235.313348 415,222.051836 Z M143.5,445.097192 C122.471,445.097192 103.309,433.578315 93.491,415.037235 C92.518,413.200216 90.82,411.850022 88.803,411.31054 C64.19,404.72946 47,382.466652 47,357.170626 C47,353.385313 47.384,349.594039 48.141,345.90013 C48.843,342.475464 47.054,339.024968 43.839,337.604233 C26.32,329.866695 15,312.587387 15,293.585313 C15,284.942678 17.256,276.681555 21.561,269.364276 C32.757,279.171317 47.436,285.140389 63.5,285.140389 C67.642,285.140389 71,281.80514 71,277.688985 C71,273.572829 67.642,270.237581 63.5,270.237581 C36.757,270.237581 15,248.621555 15,222.051836 C15,207.749114 21.352,194.269028 32.428,185.072009 C34.928,182.995551 35.793,179.553002 34.568,176.553564 C32.2,170.755378 31,164.670065 31,158.466523 C31,131.896803 52.757,110.280778 79.5,110.280778 C106.243,110.280778 128,131.896803 128,158.466523 C128,162.582678 131.358,165.917927 135.5,165.917927 C139.642,165.917927 143,162.582678 143,158.466523 C143,125.042505 116.698,97.6203456 83.579,95.5220302 C80.577,90.5365443 79,84.8675162 79,78.9848812 C79,65.7025054 87.116,54.2710583 98.678,49.3193521 C99.125,49.1872138 99.563,49.0143413 99.986,48.7957667 C103.568,47.4425918 107.447,46.6954644 111.5,46.6954644 C124.057,46.6954644 135.267,53.6709719 140.756,64.9017279 C142.566,68.6045788 147.054,70.1485097 150.779,68.3492441 C154.505,66.5519654 156.059,62.0940389 154.249,58.3921814 C147.983,45.5727862 136.124,36.3588769 122.467,33.095162 C141.609,21.4908423 160.454,14.9028078 175.5,14.9028078 C189.009,14.9028078 200,25.8215983 200,39.2440605 L200,135.66622 C193.261,130.35486 184.75,127.170626 175.5,127.170626 C171.358,127.170626 168,130.505875 168,134.62203 C168,138.738186 171.358,142.073434 175.5,142.073434 C189.009,142.073434 200,152.992225 200,166.414687 L200,345.525572 C190.675,333.572527 177.529,324.551361 162.065,320.423283 C158.066,319.359222 153.951,321.711879 152.876,325.685961 C151.801,329.661037 154.173,333.74838 158.173,334.815421 C182.8,341.389546 200,363.655335 200,388.963283 C200,419.915421 174.654,445.097192 143.5,445.097192 Z M371.161,337.605227 C367.946,339.025961 366.157,342.475464 366.859,345.901123 C367.616,349.595032 368,353.386307 368,357.17162 C368,382.467646 350.81,404.730454 326.197,411.311533 C324.18,411.851015 322.481,413.20121 321.509,415.038229 C311.691,433.578315 292.529,445.097192 271.5,445.097192 C240.346,445.097192 215,419.915421 215,388.963283 C215,386.867948 214.902,384.790497 214.719,382.732916 C214.897,382.096069 215,381.42743 215,380.733952 L215,134.62203 C215,121.199568 225.991,110.280778 239.5,110.280778 C243.642,110.280778 247,106.945529 247,102.829374 C247,98.7132181 243.642,95.3779698 239.5,95.3779698 C230.25,95.3779698 221.739,98.562203 215,103.873564 L215,39.2440605 C215,25.8215983 225.991,14.9028078 239.5,14.9028078 C254.546,14.9028078 273.391,21.4908423 292.533,33.095162 C278.876,36.3578834 267.017,45.5727862 260.751,58.3921814 C258.941,62.0950324 260.495,66.552959 264.221,68.3492441 C267.947,70.1475162 272.434,68.6045788 274.244,64.9017279 C279.733,53.6709719 290.943,46.6954644 303.5,46.6954644 C307.553,46.6954644 311.433,47.4425918 315.014,48.7957667 C315.436,49.0143413 315.874,49.1862203 316.319,49.3183585 C327.883,54.2700648 336,65.7015119 336,78.9848812 C336,84.8675162 334.423,90.5365443 331.421,95.5220302 C298.302,97.6203456 272,125.042505 272,158.466523 C272,162.582678 275.358,165.917927 279.5,165.917927 C283.642,165.917927 287,162.582678 287,158.466523 C287,131.896803 308.757,110.280778 335.5,110.280778 C362.243,110.280778 384,131.896803 384,158.466523 C384,164.670065 382.8,170.755378 380.433,176.553564 C379.208,179.553996 380.073,182.995551 382.573,185.072009 C393.648,194.269028 400,207.749114 400,222.051836 C400,248.621555 378.243,270.237581 351.5,270.237581 C347.358,270.237581 344,273.572829 344,277.688985 C344,281.80514 347.358,285.140389 351.5,285.140389 C367.564,285.140389 382.243,279.171317 393.439,269.364276 C397.745,276.681555 400,284.942678 400,293.585313 C400,312.587387 388.68,329.866695 371.161,337.605227 Z" id="Shape"></path>
            <path d="M335.5,238.444924 C319.964,238.444924 306.946,227.554946 303.755,213.056501 C334.881,209.020821 359,182.524622 359,150.518359 C359,146.402203 355.642,143.066955 351.5,143.066955 C347.358,143.066955 344,146.402203 344,150.518359 C344,177.088078 322.243,198.704104 295.5,198.704104 C282.357,198.704104 270.053,193.566609 260.854,184.237451 C257.956,181.298618 253.207,181.249935 250.248,184.130151 C247.289,187.010367 247.24,191.727603 250.139,194.66743 C260.541,205.215637 273.978,211.659611 288.534,213.223413 C291.978,235.904492 311.726,253.347732 335.5,253.347732 C339.642,253.347732 343,250.012484 343,245.896328 C343,241.780173 339.642,238.444924 335.5,238.444924 Z" id="Shape"></path>
            <path d="M311.5,325.87473 C308.61,325.87473 305.77,326.085356 302.981,326.45892 C302.987,326.098272 303,325.737624 303,325.37797 C303,290.590842 274.514,262.289417 239.5,262.289417 C235.358,262.289417 232,265.624665 232,269.740821 C232,273.856976 235.358,277.192225 239.5,277.192225 C266.243,277.192225 288,298.808251 288,325.37797 C288,327.080864 287.909,328.789719 287.731,330.477711 C264.462,339.846609 248,362.524708 248,388.963283 C248,393.079438 251.358,396.414687 255.5,396.414687 C259.642,396.414687 263,393.079438 263,388.963283 C263,362.393564 284.757,340.777538 311.5,340.777538 C315.642,340.777538 319,337.442289 319,333.326134 C319,329.209978 315.642,325.87473 311.5,325.87473 Z" id="Shape"></path>
        </g>
    </g>
</svg>