<?xml version="1.0" encoding="UTF-8" standalone="no"?>
<svg width="463px" height="460px" viewBox="0 0 463 460" version="1.1" xmlns="http://www.w3.org/2000/svg" xmlns:xlink="http://www.w3.org/1999/xlink">
    <!-- Generator: Sketch 45.2 (43514) - http://www.bohemiancoding.com/sketch -->
    <title>globe-europe-simple-bw</title>
    <desc>Created with Sketch.</desc>
    <defs></defs>
    <g id="Page-1" stroke="none" stroke-width="1" fill="none" fill-rule="evenodd">
        <g id="globe-europe-simple-bw">
            <path d="M462.507925,229.755556 C462.507925,356.646376 358.972331,459.511113 231.253962,459.511113 C103.535594,459.511113 0,356.646376 0,229.755556 C0,102.864737 103.535594,0 231.253962,0 C358.972331,0 462.507925,102.864737 462.507925,229.755556 Z" id="Fill-1" fill="#000000"></path>
            <path d="M6.08563059,229.755556 C6.08563059,271.473573 17.647568,310.16849 37.732431,343.422583 L40.7752463,289.006794 C15.2140765,253.334976 9.12844588,238.219479 8.51912212,195.896087 C6.69495435,206.781512 6.08563059,218.268534 6.08563059,229.755556 Z M59.0321381,85.8575353 L89.460291,75.5774857 C109.541351,49.5803422 149.707273,18.7439722 190.478716,18.7439722 C174.659119,23.5794198 129.01689,45.3464914 125.364751,59.2512372 C142.402995,48.3695908 156.402227,46.5572427 173.440472,46.5572427 L210.563579,25.9971435 L198.392318,8.46392262 C142.402995,16.3262485 93.7179503,44.7411157 59.0321381,85.8575353 Z M88.8509673,230.360932 C88.8509673,243.660302 102.237072,271.473573 118.060473,271.473573 L157.007748,271.473573 L161.878534,279.335899 C174.049795,279.335899 174.049795,287.799821 174.049795,298.681468 C174.049795,313.191589 192.306687,315.613092 192.306687,338.587136 C192.306687,344.633335 185.002409,347.051058 185.002409,356.725732 C185.002409,365.189655 207.520764,408.723798 221.516193,408.723798 C245.858715,408.723798 272.634729,386.956727 272.634729,377.282053 C272.634729,354.308009 293.328916,360.354208 293.328916,344.633335 C293.328916,273.2897 322.538421,307.14539 333.491035,245.476429 L308.542992,255.151103 C281.763175,232.778656 265.943578,200.129938 265.943578,188.03754 C273.853376,188.03754 298.195899,224.314733 306.715021,246.081805 C327.405404,237.614103 348.705111,222.498606 354.185222,200.735314 L343.228804,195.896087 L339.576665,188.642916 L331.057543,199.524562 C328.014728,199.524562 314.019299,189.244513 309.757836,174.734391 C329.233375,187.432164 338.361821,187.432164 372.442113,187.432164 C388.26171,187.432164 397.390156,232.778656 412.604232,240.637203 C412.604232,215.850811 414.432204,195.896087 423.56065,175.945142 C432.079772,175.945142 446.075201,189.849888 455.81297,217.057783 C450.336663,117.900878 379.742588,35.6718175 285.415314,12.6977734 L299.414546,24.1847954 L284.20047,24.1847954 C284.20047,56.2281378 274.4627,45.3464914 252.553669,69.5312868 C252.553669,63.485088 252.553669,61.0673642 257.420652,58.0442648 C248.292207,52.6034416 239.773084,50.7873146 233.687454,50.7873146 C224.559008,50.7873146 199.607162,66.5081874 192.306687,82.2290602 L205.087272,81.0183089 L209.954255,91.9037341 C220.906869,85.2521596 217.258533,63.485088 233.687454,63.485088 C233.687454,68.3205355 226.992499,70.1366625 226.992499,78.6005851 L242.206576,77.9952094 C228.211147,93.7160822 220.906869,97.3445573 202.044457,97.3445573 L199.001642,87.6698834 C193.521531,101.574629 177.092611,108.831579 163.702702,110.042331 C163.702702,117.295502 163.093378,121.529353 158.835719,128.180927 L143.012319,125.157828 L132.665225,148.131872 L152.750088,152.365723 C161.878534,137.851822 172.831148,129.993275 188.045224,126.970176 L207.520764,148.131872 C207.520764,150.549596 203.868625,152.365723 195.349503,152.365723 L202.649977,157.20117 L213.606394,143.898021 C203.868625,138.457198 200.216486,132.410999 200.216486,125.157828 C223.344164,131.805623 217.864054,155.388822 228.211147,157.20117 C228.211147,129.993275 247.077363,154.783446 247.077363,122.134728 C260.463468,122.134728 283.591146,129.993275 283.591146,139.667949 C248.90153,139.667949 239.163761,140.874922 239.163761,151.760347 C239.163761,157.20117 268.986393,148.737248 268.986393,177.152115 C244.643871,177.152115 233.687454,177.152115 220.301349,169.898944 L216.039886,181.991341 C201.435133,177.757491 186.221057,169.898944 186.221057,152.967319 L150.922117,158.411922 L141.188151,152.365723 C116.845629,182.596717 88.8509673,178.968242 88.8509673,230.360932 Z M153.359412,99.1569054 L162.487858,97.3445573 L166.745517,88.8806347 C158.226395,88.8806347 153.964932,94.3214579 153.359412,99.1569054 Z M158.835719,105.80848 L178.307455,102.785381 L175.264639,79.2059608 C163.702702,85.2521596 177.092611,94.3214579 158.835719,105.80848 Z M160.050563,62.2743367 C167.964165,62.2743367 174.659119,61.0673642 174.659119,55.626541 L163.093378,53.2050384 L160.050563,62.2743367 Z M292.719592,121.529353 C309.148512,121.529353 320.714253,141.480297 320.714253,149.94422 L306.105697,148.737248 C306.105697,139.062574 300.62939,128.782524 292.719592,121.529353 Z M298.805222,382.121279 C313.409975,382.121279 328.014728,359.748832 328.014728,335.564036 L304.890853,354.913384 L298.805222,382.121279 Z" id="Fill-2" fill="#FFFFFF"></path>
        </g>
    </g>
</svg>